<?xml version="1.0"?>
<!-- Generated by SVGo and Plotinum VG -->
<svg width="720pt" height="288pt" viewBox="0 0 720 288"
	xmlns="http://www.w3.org/2000/svg"
	xmlns:xlink="http://www.w3.org/1999/xlink">
<g transform="scale(1, -1) translate(0, -288)">
<path d="M0,0L720,0L720,288L0,288Z" style="fill:#FFFFFF" />
<text x="297.16" y="-278.61" transform="scale(1, -1)"
	style="font-family:Liberation Serif;font-variant:normal;font-weight:normal;font-style:normal;font-size:12px">GitHub Commits by Hour</text>
<text x="338.25" y="-3.9023" transform="scale(1, -1)"
	style="font-family:Liberation Serif;font-variant:normal;font-weight:normal;font-style:normal;font-size:12px">Hour of Day (UTC)</text>
<text x="57.135" y="-16.541" transform="scale(1, -1)"
	style="font-family:Liberation Serif;font-variant:normal;font-weight:normal;font-style:normal;font-size:10px">00</text>
<text x="85.303" y="-16.541" transform="scale(1, -1)"
	style="font-family:Liberation Serif;font-variant:normal;font-weight:normal;font-style:normal;font-size:10px">01</text>
<text x="113.47" y="-16.541" transform="scale(1, -1)"
	style="font-family:Liberation Serif;font-variant:normal;font-weight:normal;font-style:normal;font-size:10px">02</text>
<text x="141.64" y="-16.541" transform="scale(1, -1)"
	style="font-family:Liberation Serif;font-variant:normal;font-weight:normal;font-style:normal;font-size:10px">03</text>
<text x="169.81" y="-16.541" transform="scale(1, -1)"
	style="font-family:Liberation Serif;font-variant:normal;font-weight:normal;font-style:normal;font-size:10px">04</text>
<text x="197.98" y="-16.541" transform="scale(1, -1)"
	style="font-family:Liberation Serif;font-variant:normal;font-weight:normal;font-style:normal;font-size:10px">05</text>
<text x="226.14" y="-16.541" transform="scale(1, -1)"
	style="font-family:Liberation Serif;font-variant:normal;font-weight:normal;font-style:normal;font-size:10px">06</text>
<text x="254.31" y="-16.541" transform="scale(1, -1)"
	style="font-family:Liberation Serif;font-variant:normal;font-weight:normal;font-style:normal;font-size:10px">07</text>
<text x="282.48" y="-16.541" transform="scale(1, -1)"
	style="font-family:Liberation Serif;font-variant:normal;font-weight:normal;font-style:normal;font-size:10px">08</text>
<text x="310.65" y="-16.541" transform="scale(1, -1)"
	style="font-family:Liberation Serif;font-variant:normal;font-weight:normal;font-style:normal;font-size:10px">09</text>
<text x="338.82" y="-16.541" transform="scale(1, -1)"
	style="font-family:Liberation Serif;font-variant:normal;font-weight:normal;font-style:normal;font-size:10px">10</text>
<text x="367.17" y="-16.541" transform="scale(1, -1)"
	style="font-family:Liberation Serif;font-variant:normal;font-weight:normal;font-style:normal;font-size:10px">11</text>
<text x="395.15" y="-16.541" transform="scale(1, -1)"
	style="font-family:Liberation Serif;font-variant:normal;font-weight:normal;font-style:normal;font-size:10px">12</text>
<text x="423.32" y="-16.541" transform="scale(1, -1)"
	style="font-family:Liberation Serif;font-variant:normal;font-weight:normal;font-style:normal;font-size:10px">13</text>
<text x="451.49" y="-16.541" transform="scale(1, -1)"
	style="font-family:Liberation Serif;font-variant:normal;font-weight:normal;font-style:normal;font-size:10px">14</text>
<text x="479.66" y="-16.541" transform="scale(1, -1)"
	style="font-family:Liberation Serif;font-variant:normal;font-weight:normal;font-style:normal;font-size:10px">15</text>
<text x="507.82" y="-16.541" transform="scale(1, -1)"
	style="font-family:Liberation Serif;font-variant:normal;font-weight:normal;font-style:normal;font-size:10px">16</text>
<text x="535.99" y="-16.541" transform="scale(1, -1)"
	style="font-family:Liberation Serif;font-variant:normal;font-weight:normal;font-style:normal;font-size:10px">17</text>
<text x="564.16" y="-16.541" transform="scale(1, -1)"
	style="font-family:Liberation Serif;font-variant:normal;font-weight:normal;font-style:normal;font-size:10px">18</text>
<text x="592.33" y="-16.541" transform="scale(1, -1)"
	style="font-family:Liberation Serif;font-variant:normal;font-weight:normal;font-style:normal;font-size:10px">19</text>
<text x="620.5" y="-16.541" transform="scale(1, -1)"
	style="font-family:Liberation Serif;font-variant:normal;font-weight:normal;font-style:normal;font-size:10px">20</text>
<text x="648.66" y="-16.541" transform="scale(1, -1)"
	style="font-family:Liberation Serif;font-variant:normal;font-weight:normal;font-style:normal;font-size:10px">21</text>
<text x="676.83" y="-16.541" transform="scale(1, -1)"
	style="font-family:Liberation Serif;font-variant:normal;font-weight:normal;font-style:normal;font-size:10px">22</text>
<text x="705" y="-16.541" transform="scale(1, -1)"
	style="font-family:Liberation Serif;font-variant:normal;font-weight:normal;font-style:normal;font-size:10px">23</text>
<g transform="rotate(90)">
<text x="103.67" y="9.3867" transform="scale(1, -1)"
	style="font-family:Liberation Serif;font-variant:normal;font-weight:normal;font-style:normal;font-size:12px">Number of Commits</text>
</g>
<text x="30.885" y="-29.674" transform="scale(1, -1)"
	style="font-family:Liberation Serif;font-variant:normal;font-weight:normal;font-style:normal;font-size:10px">0</text>
<text x="15.885" y="-137.84" transform="scale(1, -1)"
	style="font-family:Liberation Serif;font-variant:normal;font-weight:normal;font-style:normal;font-size:10px">3000</text>
<text x="15.885" y="-246" transform="scale(1, -1)"
	style="font-family:Liberation Serif;font-variant:normal;font-weight:normal;font-style:normal;font-size:10px">6000</text>
<path d="M38.385,31.959L46.385,31.959" style="fill:none;stroke:#000000;stroke-width:0.5" />
<path d="M38.385,140.12L46.385,140.12" style="fill:none;stroke:#000000;stroke-width:0.5" />
<path d="M38.385,248.28L46.385,248.28" style="fill:none;stroke:#000000;stroke-width:0.5" />
<path d="M42.385,68.013L46.385,68.013" style="fill:none;stroke:#000000;stroke-width:0.5" />
<path d="M42.385,104.07L46.385,104.07" style="fill:none;stroke:#000000;stroke-width:0.5" />
<path d="M42.385,176.18L46.385,176.18" style="fill:none;stroke:#000000;stroke-width:0.5" />
<path d="M42.385,212.23L46.385,212.23" style="fill:none;stroke:#000000;stroke-width:0.5" />
<path d="M46.385,31.959L46.385,274.71" style="fill:none;stroke:#000000;stroke-width:0.5" />
<path d="M52.135,31.959L52.135,119.39L72.135,119.39L72.135,31.959Z" style="fill:#0000FF" />
<path d="M52.135,31.959L52.135,119.39L72.135,119.39L72.135,31.959L52.135,31.959" style="fill:none;stroke:#000000" />
<path d="M80.303,31.959L80.303,106.59L100.3,106.59L100.3,31.959Z" style="fill:#0000FF" />
<path d="M80.303,31.959L80.303,106.59L100.3,106.59L100.3,31.959L80.303,31.959" style="fill:none;stroke:#000000" />
<path d="M108.47,31.959L108.47,69.708L128.47,69.708L128.47,31.959Z" style="fill:#0000FF" />
<path d="M108.47,31.959L108.47,69.708L128.47,69.708L128.47,31.959L108.47,31.959" style="fill:none;stroke:#000000" />
<path d="M136.64,31.959L136.64,65.165L156.64,65.165L156.64,31.959Z" style="fill:#0000FF" />
<path d="M136.64,31.959L136.64,65.165L156.64,65.165L156.64,31.959L136.64,31.959" style="fill:none;stroke:#000000" />
<path d="M164.81,31.959L164.81,45.407L184.81,45.407L184.81,31.959Z" style="fill:#0000FF" />
<path d="M164.81,31.959L164.81,45.407L184.81,45.407L184.81,31.959L164.81,31.959" style="fill:none;stroke:#000000" />
<path d="M192.98,31.959L192.98,37.439L212.98,37.439L212.98,31.959Z" style="fill:#0000FF" />
<path d="M192.98,31.959L192.98,37.439L212.98,37.439L212.98,31.959L192.98,31.959" style="fill:none;stroke:#000000" />
<path d="M221.14,31.959L221.14,38.232L241.14,38.232L241.14,31.959Z" style="fill:#0000FF" />
<path d="M221.14,31.959L221.14,38.232L241.14,38.232L241.14,31.959L221.14,31.959" style="fill:none;stroke:#000000" />
<path d="M249.31,31.959L249.31,47.39L269.31,47.39L269.31,31.959Z" style="fill:#0000FF" />
<path d="M249.31,31.959L249.31,47.39L269.31,47.39L269.31,31.959L249.31,31.959" style="fill:none;stroke:#000000" />
<path d="M277.48,31.959L277.48,78.216L297.48,78.216L297.48,31.959Z" style="fill:#0000FF" />
<path d="M277.48,31.959L277.48,78.216L297.48,78.216L297.48,31.959L277.48,31.959" style="fill:none;stroke:#000000" />
<path d="M305.65,31.959L305.65,157.75L325.65,157.75L325.65,31.959Z" style="fill:#0000FF" />
<path d="M305.65,31.959L305.65,157.75L325.65,157.75L325.65,31.959L305.65,31.959" style="fill:none;stroke:#000000" />
<path d="M333.82,31.959L333.82,199.32L353.82,199.32L353.82,31.959Z" style="fill:#0000FF" />
<path d="M333.82,31.959L333.82,199.32L353.82,199.32L353.82,31.959L333.82,31.959" style="fill:none;stroke:#000000" />
<path d="M361.98,31.959L361.98,211.87L381.98,211.87L381.98,31.959Z" style="fill:#0000FF" />
<path d="M361.98,31.959L361.98,211.87L381.98,211.87L381.98,31.959L361.98,31.959" style="fill:none;stroke:#000000" />
<path d="M390.15,31.959L390.15,196.15L410.15,196.15L410.15,31.959Z" style="fill:#0000FF" />
<path d="M390.15,31.959L390.15,196.15L410.15,196.15L410.15,31.959L390.15,31.959" style="fill:none;stroke:#000000" />
<path d="M418.32,31.959L418.32,199.79L438.32,199.79L438.32,31.959Z" style="fill:#0000FF" />
<path d="M418.32,31.959L418.32,199.79L438.32,199.79L438.32,31.959L418.32,31.959" style="fill:none;stroke:#000000" />
<path d="M446.49,31.959L446.49,254.09L466.49,254.09L466.49,31.959Z" style="fill:#0000FF" />
<path d="M446.49,31.959L446.49,254.09L466.49,254.09L466.49,31.959L446.49,31.959" style="fill:none;stroke:#000000" />
<path d="M474.66,31.959L474.66,231.73L494.66,231.73L494.66,31.959Z" style="fill:#0000FF" />
<path d="M474.66,31.959L474.66,231.73L494.66,231.73L494.66,31.959L474.66,31.959" style="fill:none;stroke:#000000" />
<path d="M502.82,31.959L502.82,274.71L522.82,274.71L522.82,31.959Z" style="fill:#0000FF" />
<path d="M502.82,31.959L502.82,274.71L522.82,274.71L522.82,31.959L502.82,31.959" style="fill:none;stroke:#000000" />
<path d="M530.99,31.959L530.99,250.3L550.99,250.3L550.99,31.959Z" style="fill:#0000FF" />
<path d="M530.99,31.959L530.99,250.3L550.99,250.3L550.99,31.959L530.99,31.959" style="fill:none;stroke:#000000" />
<path d="M559.16,31.959L559.16,254.12L579.16,254.12L579.16,31.959Z" style="fill:#0000FF" />
<path d="M559.16,31.959L559.16,254.12L579.16,254.12L579.16,31.959L559.16,31.959" style="fill:none;stroke:#000000" />
<path d="M587.33,31.959L587.33,180.97L607.33,180.97L607.33,31.959Z" style="fill:#0000FF" />
<path d="M587.33,31.959L587.33,180.97L607.33,180.97L607.33,31.959L587.33,31.959" style="fill:none;stroke:#000000" />
<path d="M615.5,31.959L615.5,164.78L635.5,164.78L635.5,31.959Z" style="fill:#0000FF" />
<path d="M615.5,31.959L615.5,164.78L635.5,164.78L635.5,31.959L615.5,31.959" style="fill:none;stroke:#000000" />
<path d="M643.66,31.959L643.66,146.72L663.66,146.72L663.66,31.959Z" style="fill:#0000FF" />
<path d="M643.66,31.959L643.66,146.72L663.66,146.72L663.66,31.959L643.66,31.959" style="fill:none;stroke:#000000" />
<path d="M671.83,31.959L671.83,160.6L691.83,160.6L691.83,31.959Z" style="fill:#0000FF" />
<path d="M671.83,31.959L671.83,160.6L691.83,160.6L691.83,31.959L671.83,31.959" style="fill:none;stroke:#000000" />
<path d="M700,31.959L700,164.31L720,164.31L720,31.959Z" style="fill:#0000FF" />
<path d="M700,31.959L700,164.31L720,164.31L720,31.959L700,31.959" style="fill:none;stroke:#000000" />
</g>
</svg>
